<svg width="48" height="48" viewBox="0 0 48 48" fill="none" xmlns="http://www.w3.org/2000/svg" xmlns:xlink="http://www.w3.org/1999/xlink">
<path d="M22.323,24.854C29.292,24.854 34.942,19.29 34.942,12.427C34.942,5.564 29.292,0 22.323,0C15.353,0 9.703,5.564 9.703,12.427C9.703,19.29 15.353,24.854 22.323,24.854Z" fill="#4F4F4F"/>
<path d="M0,46.686C0.477,34.071 11.323,24.497 23.066,25.136C33.512,25.699 44.016,32.288 44.645,46.686Z" fill="#4F4F4F"/>
<path d="M46.285,34.803L45.331,34.803C45.141,33.865 44.76,32.945 44.188,32.1L44.855,31.443C45.522,30.786 45.522,29.754 44.855,29.115L44.474,28.646C43.806,27.989 42.758,27.989 42.11,28.646L41.347,29.303C40.489,28.834 39.536,28.364 38.602,28.177L38.602,27.238C38.602,26.299 37.84,25.549 36.887,25.549L36.315,25.549C35.362,25.549 34.599,26.299 34.599,27.238L34.599,28.177C33.551,28.364 32.712,28.834 31.854,29.303L31.187,28.646C30.52,27.989 29.471,27.989 28.823,28.646L28.442,29.115C27.775,29.772 27.775,30.805 28.442,31.443L29.014,32.1C28.442,32.945 28.061,33.883 27.87,34.803L26.917,34.803C25.964,34.803 25.201,35.554 25.201,36.493L25.201,37.056C25.201,37.994 25.964,38.745 26.917,38.745L27.87,38.745C28.061,39.684 28.442,40.604 29.014,41.448L28.347,42.105C27.679,42.763 27.679,43.795 28.347,44.433L28.728,44.809C29.395,45.466 30.443,45.466 31.092,44.809L31.854,44.246C32.712,44.809 33.665,45.184 34.599,45.372L34.599,46.31C34.599,47.249 35.362,48 36.315,48L36.887,48C37.84,48 38.602,47.249 38.602,46.31L38.602,45.372C39.651,45.184 40.489,44.715 41.347,44.246L42.015,44.903C42.682,45.56 43.73,45.56 44.378,44.903L44.76,44.527C45.427,43.87 45.427,42.838 44.76,42.199L44.188,41.448C44.76,40.604 45.141,39.665 45.331,38.745L46.285,38.745C47.238,38.745 48,37.994 48,37.056L48,36.493C48,35.554 47.238,34.803 46.285,34.803Z" fill="#FFFFFF" stroke="#4F4F4F" stroke-width="1.09" stroke-miterlimit="10"/>
<path d="M36.601,40.791C38.854,40.791 40.68,38.993 40.68,36.774C40.68,34.556 38.854,32.757 36.601,32.757C34.348,32.757 32.521,34.556 32.521,36.774C32.521,38.993 34.348,40.791 36.601,40.791Z" fill="#FFFFFF" stroke="#4F4F4F" stroke-width="1.09" stroke-miterlimit="10"/>
</svg>
