<svg width="110" height="86" viewBox="0 0 110 86" fill="none" xmlns="http://www.w3.org/2000/svg" xmlns:xlink="http://www.w3.org/1999/xlink">
<path d="M32.667,45.384L26.027,65.93C23.915,72.459 19,77.709 12.627,80.245L0,85.271L19.862,23.848L32.667,45.384Z" fill="#F7941D"/>
<path d="M65.766,64.286L62.137,70.265C58.776,75.812 50.715,75.775 47.398,70.198L43.829,64.19L32.66,45.383L19.854,23.848L27.573,0L40.371,21.543L54.886,45.971L65.766,64.286Z" fill="#FBB040"/>
<path d="M109.476,86L94.47,79.441C89.502,77.27 85.725,73.053 84.104,67.885L77.128,45.591L90.134,24.167L109.483,85.992L109.476,86Z" fill="#F48B00"/>
<path d="M90.12,24.175L77.121,45.591L65.766,64.286L54.887,45.971L69.633,21.677L82.639,0.26L90.12,24.175Z" fill="#F49D00"/>
<path d="M23.87,57.586C17.847,54.337 14.196,46.499 15.862,40.936C18.769,31.202 37.464,30.102 38.542,20.048C38.72,18.382 38.364,17.021 38.877,16.843C39.122,16.754 39.538,16.962 40.052,17.423C39.977,17.408 39.918,17.416 39.866,17.43C39.353,17.609 39.709,18.977 39.531,20.635C38.46,30.697 19.766,31.797 16.851,41.524C15.281,46.774 18.457,54.054 23.878,57.586L23.87,57.586Z" fill="#FFFFFF"/>
</svg>
